 http://www.grinshare.com/img/UQPRMU.png
 
http://www.grinshare.com/img/QWSPN0.png
 
http://www.grinshare.com/img/PWVAHP.png
 
http://www.grinshare.com/img/MG7VV2.png
 
http://www.grinshare.com/img/980T11.png
 
http://www.grinshare.com/img/3D3GPT.png


Motor City moves the action to Michigan and explores the world of dirty cops on the violent streets of Detroit. Marty Kingston (Liotta) is an undercover narcotics detective who is shot and barely survives a drug bust gone wrong to save the life of his partner. When his partner is killed by a masked gunman four years later, Marty must team up with the hotheaded homicide detective Dan Sullivan (Hatosy) to investigate a string of brutal cop murders and hunt down the cop killer. The investigation that ensues is shrouded in deception and loaded with plot twists that question the line between the rules of law and justice./b]
 
http://www.imdb.com/title/tt1707687/

Format;AVI

File Size:1.1gb

Video
ID : 0
Format : MPEG-4 Visual
Format profile : Advanced Simple@L5
Format settings, BVOP : Yes
Format settings, QPel : No
Format settings, GMC : No warppoints
Format settings, Matrix : Custom
Codec ID : XVID
Codec ID/Hint : XviD
Duration : 1h 25mn
Bit rate : 1 141 Kbps
Width : 680 pixels
Height : 384 pixels
Display aspect ratio : 16:9
Frame rate : 23.976 fps
Color space : YUV
Chroma subsampling : 4:2:0
Bit depth : 8 bits
Scan type : Progressive
Bits/(Pixel*Frame) : 0.182
Stream size : 702 MiB (71%)
Writing library : XviD 1.2.1 (UTC 2008-12-04)

Audio
ID : 1
Format : AC-3
Format/Info : Audio Coding 3
Mode extension : CM (complete main)
Codec ID : 2000
Duration : 1h 25mn
Bit rate mode : Constant
Bit rate : 448 Kbps
Channel(s) : 6 channels
Channel positions : Front: L C R, Side: L R, LFE
Sampling rate : 48.0 KHz
Bit depth : 16 bits
Stream size : 275 MiB (28%)
Alignment : Aligned on interleaves
Interleave, duration : 42 ms (1.00 video frame)
Interleave, preload duration : 512 ms




Duration:1:25

Release Date:2011

Language:English